<svg width="162" height="46" viewBox="0 0 162 46" fill="none" xmlns="http://www.w3.org/2000/svg">
<path fill-rule="evenodd" clip-rule="evenodd" d="M61.2094 0.335693C58.4381 1.13865 54.3023 5.26047 53.2919 8.22624C52.5963 10.267 52.6462 12.2207 53.4265 13.5005C54.0094 14.456 55.3264 15.4901 55.6053 15.2108C55.6662 15.1503 55.5741 14.3526 55.4012 13.4383C55.228 12.5243 55.1827 10.9929 55.3001 10.0353C55.7636 6.25494 58.9219 1.75141 61.6386 0.997337C63.978 0.34766 64.7134 0.519224 66.1491 2.05099C66.8776 2.82834 67.3231 3.16481 67.1386 2.79908C66.4031 1.3388 64.2204 -0.0722688 62.8143 0.00287298C62.5061 0.0194973 61.7839 0.169118 61.2094 0.335693ZM73.3305 9.21173C71.1926 10.6331 70.3421 11.5976 69.4038 13.6647C68.4805 15.6992 68.5447 17.3144 69.5983 18.5665C70.0718 19.1291 70.5579 19.5896 70.6789 19.5896C70.7999 19.5899 70.8987 18.2683 70.8987 16.6528C70.8987 13.8516 70.9548 13.6251 72.1162 11.7486C73.6174 9.32311 74.4506 8.68041 76.4448 8.4111C77.8526 8.22092 78.0823 8.28908 78.8554 9.12296C79.3252 9.62966 79.7095 9.88401 79.7095 9.68784C79.7095 9.49135 79.3152 9.02055 78.8334 8.64185C77.4187 7.52868 75.5744 7.71987 73.3305 9.21173ZM62.8429 11.6415C60.4071 12.8471 58.1206 16.1224 58.1066 18.4259C58.1033 18.9745 58.3992 19.9131 58.7643 20.5119C59.1293 21.1107 59.4279 21.6676 59.4279 21.7494C59.4279 21.8316 58.6422 22.1275 57.6824 22.4074C55.3822 23.078 53.9113 24.0053 53.1429 25.2688C52.4494 26.4089 50.5715 33.1208 50.8641 33.413C50.9655 33.5148 51.4426 33.0812 51.924 32.4501C52.5155 31.6748 52.9385 30.5081 53.2277 28.854C53.8062 25.5487 54.1743 24.9862 56.381 24.0326C60.2159 22.3748 59.923 22.7402 59.9566 19.5756C59.9885 16.57 60.319 15.4066 61.629 13.689C63.3034 11.4939 65.5742 11.0181 67.1858 12.5243L68.164 13.4386L67.615 12.5755C67.0425 11.6761 65.7867 10.9446 64.8152 10.9453C64.5036 10.9453 63.6162 11.2588 62.8429 11.6415ZM50.5771 17.3992C45.6786 19.1786 44.0504 20.5638 43.1946 23.6805L42.8472 24.9456L44.1828 24.8442C45.4662 24.7471 45.542 24.676 46.1238 23.0179C47.0282 20.4421 47.9645 19.6618 51.9802 18.138C53.2786 17.6452 54.6252 17.0271 54.9726 16.7641C55.5668 16.3143 55.5451 16.2864 54.6069 16.292C54.0583 16.2953 52.2449 16.7934 50.5771 17.3992ZM68.427 20.7839C65.9456 21.4512 64.081 22.5424 63.2079 23.8384C62.4854 24.911 60.6009 31.9195 60.8413 32.6403C60.9088 32.8435 61.3826 32.4614 61.8936 31.7912C62.6198 30.8396 62.8981 29.9851 63.1657 27.8891C63.6112 24.3993 64.3118 23.353 66.9374 22.2565C68.6826 21.5273 70.8817 20.2812 70.3999 20.2938C70.3085 20.2965 69.4208 20.5169 68.427 20.7839ZM97.165 22.7608C92.4324 24.1217 91.8649 24.3538 92.6765 24.5955C93.1336 24.7318 94.6085 24.8578 95.9541 24.8761L98.4009 24.9094L98.1751 23.995C97.9184 22.957 97.6451 22.6225 97.165 22.7608ZM132.506 26.6845C129.1 27.6467 127.005 30.1075 126.296 33.9769C125.066 40.6968 130.338 45.7755 137.818 45.077C140.493 44.8273 140.918 44.5669 141.418 42.8749C141.79 41.6161 141.776 41.5044 141.275 41.6999C139.435 42.4174 136.634 42.9065 135.448 42.717C131.766 42.1281 129.289 39.0533 129.272 35.0502C129.249 29.8142 133.517 27.3844 139.209 29.3926C140.516 29.8538 140.555 29.8464 140.58 29.1339C140.594 28.7306 140.656 28.1305 140.719 27.8003C140.874 26.9887 139.809 26.6263 136.646 26.4149C135 26.3045 133.506 26.4019 132.506 26.6845ZM82.5543 26.9043L80.578 27.0705L78.2453 33.4709C76.9625 36.9909 75.8165 39.8712 75.6988 39.8712C75.5811 39.8712 74.2514 36.9537 72.7443 33.3878L70.0036 26.9043H67.9558H65.9081L65.8977 29.1486C65.8841 32.0827 64.5402 42.0932 63.9264 43.8328L63.4473 45.191H65.261C67.2436 45.191 67.218 45.2203 66.7383 43.4933C66.4826 42.573 66.6 40.9541 67.243 36.5344C67.7038 33.3668 68.1427 30.7129 68.2185 30.6374C68.4157 30.4399 69.0677 31.7932 71.2175 36.8622C72.2608 39.322 73.3853 41.8655 73.7165 42.5145C74.4825 44.015 75.6326 45.0786 76.0442 44.667C76.2138 44.4974 77.3133 41.8153 78.487 38.7069C81.1 31.7875 81.6709 30.4173 81.8614 30.6078C82.1925 30.939 83.4167 41.7235 83.3127 43.3936L83.2006 45.192L85.1124 45.1913C86.1641 45.1913 87.0242 45.1019 87.0242 44.9928C87.0242 44.8838 86.8048 44.0236 86.5361 43.081C85.9702 41.0931 85.019 34.0617 84.7301 29.7304L84.5306 26.738L82.5543 26.9043ZM9.29972 27.2567C7.33906 27.6434 4.07771 29.4431 2.89306 30.7927C1.53652 32.3378 0.352205 34.7755 0.0815621 36.5803C-0.425811 39.964 1.46204 42.8619 4.96178 44.0715C7.08504 44.8056 12.1824 44.9167 13.7308 44.2627C14.6391 43.879 16.1386 42.0217 15.8075 41.6906C15.736 41.6191 14.7864 41.8003 13.6968 42.0932C7.52891 43.7507 3.55437 41.5962 3.57765 36.6079C3.59128 33.6817 5.31522 31.2113 8.22513 29.9475C10.6071 28.9132 12.1139 28.8094 14.7924 29.4947L17.2036 30.1118L17.5264 28.9424C17.704 28.2991 17.8157 27.7448 17.7751 27.7102C17.7342 27.676 16.908 27.4805 15.9391 27.276C13.9379 26.8537 11.3817 26.8464 9.29972 27.2567ZM26.4816 27.5131C19.1945 29.9296 15.6306 37.6552 19.7165 42.1777C21.498 44.1497 23.7775 45.0164 27.1768 45.0144C29.6518 45.0128 30.2789 44.8828 32.2239 43.9664C38.8597 40.8407 41.5728 33.7551 37.7173 29.619C35.4936 27.2334 30.2749 26.2553 26.4816 27.5131ZM42.1387 28.8221C42.1387 30.6807 40.1284 41.6533 39.4715 43.3816C39.2926 43.8521 39.1463 44.3767 39.1463 44.5476C39.1463 44.7278 41.4318 44.8585 44.5808 44.8585C50.4528 44.8585 50.4229 44.8671 51.4433 42.8982C51.8329 42.1461 51.812 42.1155 51.0702 42.3549C49.708 42.7941 42.8036 42.9783 42.8036 42.5753C42.8036 41.6228 45.1716 29.8651 45.6188 28.598C45.8991 27.8033 46.1285 27.0971 46.1285 27.0286C46.1285 26.9601 45.2308 26.9043 44.1336 26.9043H42.1387V28.8221ZM89.9634 34.8317C90.0305 39.5214 89.9394 43.2559 89.7409 43.9751L89.4051 45.191H94.6621H99.919L100.468 43.8195C100.77 43.0654 100.973 42.4041 100.919 42.3506C100.865 42.297 99.9988 42.4749 98.9934 42.7459C97.2392 43.2187 93.8202 43.1987 93.0316 42.7113C92.8204 42.5806 92.6765 41.2201 92.6765 39.3529V36.2139H95.0039H97.3313V35.2317C97.3313 34.2502 97.3289 34.2492 95.087 34.1511L92.8427 34.0527L92.744 31.596L92.6455 29.1396L95.8195 29.3055L98.9937 29.4714V28.188V26.9043L94.422 26.9039H89.8503L89.9634 34.8317ZM103.001 27.7807C103.396 28.8217 103.552 43.875 103.173 44.4878C102.812 45.072 110.788 44.9742 112.814 44.3694C116.178 43.366 118.552 40.215 118.863 36.3432C119.16 32.6446 117.351 29.6416 113.761 27.8748C112.311 27.161 111.594 27.0576 107.385 26.9562L102.644 26.8418L103.001 27.7807ZM120.641 27.8186C121.115 29.0531 121.121 42.7372 120.648 43.9442L120.289 44.8585H122.425H124.56L124.162 43.7779C123.719 42.5767 123.593 29.8338 124.005 27.9849L124.246 26.9043H122.268H120.289L120.641 27.8186ZM149.699 28.2246C149.406 29.9588 144.503 42.1863 143.581 43.4804C143.196 44.0206 142.882 44.5516 142.882 44.6603C142.882 44.7694 143.759 44.8585 144.83 44.8585C146.734 44.8585 146.776 44.8389 146.619 44.0216C146.398 42.8666 147.822 38.5902 148.558 38.1958C148.886 38.0203 150.426 37.8763 151.979 37.8763H154.802L155.65 39.6219C156.115 40.5817 156.663 42.1531 156.865 43.113L157.234 44.8585H159.201C160.283 44.8585 161.168 44.7421 161.168 44.6002C161.168 44.4579 160.908 43.9714 160.589 43.5196C160.271 43.0674 158.508 39.1813 156.672 34.8839L153.333 27.0705L151.63 26.9711L149.928 26.8717L149.699 28.2246ZM33.5279 29.6499C37.0423 31.9853 36.9233 38.1509 33.3062 41.1323C30.9871 43.0438 27.1758 43.7603 24.74 42.7426C22.2673 41.7095 20.7618 38.274 21.499 35.3468C22.5114 31.3253 25.6953 28.9763 30.2031 28.9245C31.9546 28.9042 32.6266 29.0508 33.5279 29.6499ZM113.077 30.1999C114.891 31.3214 115.762 33.2095 115.774 36.0476C115.787 38.9 115.079 40.2888 112.942 41.6068C111.324 42.6053 108.364 43.3075 107.106 42.9916L106.308 42.7914V35.9698V29.1482L109.077 29.2935C111.207 29.4056 112.13 29.6144 113.077 30.1999ZM152.177 31.1435C152.71 32.2899 153.854 35.5586 153.854 35.9336C153.854 36.0875 152.806 36.2139 151.526 36.2139C149.756 36.2139 149.199 36.1028 149.199 35.7497C149.199 35.4944 149.647 34.1851 150.195 32.8405C150.743 31.4956 151.192 30.3578 151.193 30.3123C151.193 30.2667 151.32 30.2291 151.473 30.2291C151.626 30.2291 151.943 30.6408 152.177 31.1435Z" fill="white"/>
</svg>
