<?xml version="1.0" encoding="utf-8"?>
<!-- Generator: Adobe Illustrator 24.0.2, SVG Export Plug-In . SVG Version: 6.00 Build 0)  -->
<svg version="1.1" id="Capa_1" xmlns="http://www.w3.org/2000/svg" xmlns:xlink="http://www.w3.org/1999/xlink" x="0px" y="0px"
	 viewBox="0 0 838 343" style="enable-background:new 0 0 838 343;" xml:space="preserve">
<style type="text/css">
	.st0{fill:#009FE3;}
	.st1{fill-rule:evenodd;clip-rule:evenodd;fill:#009FE3;}
	.st2{fill:#0058A2;}
	.st3{fill:#E30613;}
	.st4{fill:none;}
</style>
<g>
	<g>
		<path class="st0" d="M378.4,163.3c0-0.3-0.1-0.6-0.7-0.8c-0.6-0.2-2.1-0.8-2.3-0.9c-0.2-0.1-0.5-0.2-0.7-0.2c-0.1,0-0.2,0-0.3,0.1
			l-17.7,5.8c-6.1,1.9-13.2,7.3-15.2,15.1l-9.8,36.9c-0.1,0.2-0.1,0.5-0.1,0.7c0.1,0,0.1,0,0.1,0l0.1,0c0.7-0.1,3-2.5,6.3-6.7
			c3.2-4.2,5.5-7.9,5.8-9.6c0.1-0.6,0.2-1.7,0.3-3.2l0,0c0.3-3.1,0.8-7.9,1.8-14.3c1.1-7,5.5-12.2,12.7-15l0.1,0
			c2-0.8,12.5-4.7,18.6-7l0.2-0.1C378.1,164.1,378.4,163.7,378.4,163.3"/>
		<path class="st0" d="M417,122.7c0.5-0.1,0.7-0.6,0.6-1.1c-1.5-5.1-4.8-9.1-9.6-11.5c-0.2-0.1-0.3-0.2-0.4-0.2l-0.1,0
			c-1.5-0.7-3.2-1-5-1c-0.5,0-0.9,0-1.4,0.1c-4.6,0.6-9,2.2-13,4.9c-0.4,0.3-0.7,0.5-1.1,0.8c-0.3,0.2-0.6,0.4-1,0.8
			c-8.3,6.1-14.6,14.8-16.7,23.5c-1.5,6-0.9,11.4,1.7,15.4c2,3.1,5.2,5.1,8.9,5.7c0.1,0,0.2,0,0.2,0c0.4,0,0.8-0.4,0.8-0.8
			c0-0.3-0.1-0.5-0.3-0.7l0,0c-4-3.2-4.9-11.3-2.4-21.1c1.8-7,4.9-13.1,9.2-17.8c4.3-4.7,9.3-7.6,14.6-8.3c1.3-0.2,2.5-0.2,3.6,0
			c3.9,0.3,8.7,5.5,10.4,11c0.1,0.4,0.5,0.6,0.8,0.6C416.8,122.8,416.9,122.8,417,122.7"/>
		<path class="st0" d="M296.4,214.4c2.9-3.7,4.8-7,5.2-8.5c0.1-0.6,0.2-1.5,0.3-2.8v0c0.3-2.7,0.7-6.9,1.6-12.4
			c1-6,4.8-10.5,10.9-12.9c0.4-0.2,10.5-3.9,16.3-6.1l0.1,0c0.5-0.1,0.8-0.5,0.8-1c0-0.5-0.2-0.8-0.7-1c-0.4-0.2-1.9-0.7-2-0.8
			c-0.1-0.1-0.5-0.2-0.8-0.2c-0.1,0-0.3,0-0.4,0.1l-15.4,5.1c-5.4,1.7-11.6,6.5-13.4,13.4l-8.5,32.2c-0.1,0.4-0.2,0.9-0.1,1
			c0.2,0,0.5-0.1,0.5-0.1l0,0C291.6,220.2,294.2,217.3,296.4,214.4"/>
		<path class="st0" d="M351.9,125.6c1.1-0.1,2.1-0.2,3.1,0c3.3,0.3,7.4,4.6,8.8,9.3c0.1,0.5,0.5,0.8,1,0.8c0.1,0,0.2,0,0.3,0
			c0.3-0.1,0.5-0.3,0.6-0.5c0.1-0.2,0.2-0.5,0.1-0.8c-1.3-4.5-4.3-8.1-8.5-10.2c-0.2-0.1-0.3-0.1-0.4-0.2c0,0-0.1,0-0.1,0
			c-1.3-0.6-2.8-0.9-4.5-0.9c-0.4,0-0.8,0-1.2,0.1c-4.1,0.5-7.9,1.9-11.5,4.3c-0.4,0.2-0.6,0.4-0.9,0.7c-0.2,0.2-0.5,0.4-0.9,0.7
			c-7.3,5.3-12.8,13-14.7,20.6c-1.3,5.3-0.8,10.1,1.6,13.7c1.8,2.8,4.6,4.6,7.9,5.1c0.1,0,0.2,0,0.3,0c0.5,0,1-0.4,1-1
			c0-0.3-0.2-0.6-0.4-0.8c-3.4-2.7-4.1-9.7-2-18.1c1.5-6,4.3-11.3,8-15.4C343,128.7,347.3,126.3,351.9,125.6"/>
		<path class="st0" d="M312.6,145.7c-0.8-0.3-2.8-1.1-2.9-1.2c-0.2-0.1-0.6-0.2-0.9-0.2c-0.1,0-0.3,0-0.4,0.1l-22.8,7.5
			c-7.9,2.5-21.8,9.4-24.4,19.5l-2.6,9.7H271c0.2-1.5,0.5-3.1,0.7-4.8c1.5-9.1,7.2-15.8,16.4-19.4l0.1,0c1.6-0.6,15.8-5.9,24.1-9
			l0.3-0.1c0.5-0.1,0.9-0.5,0.9-1C313.4,146.3,313.3,146,312.6,145.7"/>
		<path class="st0" d="M362.9,94.4c0.1,0,0.2,0,0.3,0c0.6-0.2,0.9-0.8,0.8-1.4c-1.9-6.6-6.2-11.7-12.4-14.9l-0.6-0.3l-0.1,0
			c-2.4-1.1-5.2-1.5-8.2-1.2c-6,0.7-11.6,2.8-16.8,6.3c-0.5,0.3-0.9,0.6-1.4,1c-0.4,0.3-0.8,0.6-1.3,1
			c-10.7,7.8-18.8,19.1-21.6,30.3c-1.9,7.7-1.1,14.7,2.2,19.9c2.6,4,6.7,6.6,11.4,7.4c0.1,0,0.2,0,0.3,0c0.6,0,1-0.4,1-1
			c0-0.3-0.2-0.6-0.4-0.8l0,0c-5.1-4.2-6.3-14.6-3.1-27.3c2.3-9,6.4-16.9,11.9-23c5.5-6,12-9.7,18.9-10.7c1.6-0.2,3.2-0.3,4.7-0.1
			c5,0.4,11.3,7,13.4,14.2C362,94.1,362.4,94.4,362.9,94.4"/>
		<path class="st1" d="M207.9,189.4c-25.8-0.6-49.5,17.1-53.6,38.2c-4.4,22.8,13.1,38.6,37.6,38.6c24.5,0,48.5-16.5,52.9-39.2
			C248.6,207.1,233.8,189.3,207.9,189.4 M205.4,197.4c19.5,0,27.9,15.7,24.8,31.9c-3.2,16.6-17.5,28.9-36.3,28.9
			c-19.3,0-28.4-16-25.4-31.6C171.8,209.8,186.3,197.4,205.4,197.4"/>
		<path class="st2" d="M570,201c-7.9-7.5-18.5-11.2-31.7-11.2h-25.7c-0.5,0-1,0.4-1,1c0,0.3,0.1,0.5,0.2,0.6l0,0c0,0,0.1,0,0.1,0.1
			c1.1,1.1,1.8,1.8,2,2.1c0.2,0.3,0.5,1.2,0.9,2.5c0.4,1.3,0.6,2.8,0.6,4.5v53.6c0,3-0.4,5.3-1.1,7.1c-0.4,1-1.1,2-2,2.8
			c0,0-0.1,0-0.1,0.1l-0.1,0.1h0c-0.1,0.2-0.2,0.4-0.2,0.6c0,0.5,0.4,1,1,1c0,0,0.1,0,0.1,0v0h33.5c4.6-0.5,8.9-1.5,12.7-3.2
			c5.4-2.3,9.6-5.4,12.7-9.2c3.1-3.8,5.5-7.9,7.1-12.2c1.6-4.3,2.5-8.8,2.7-13.4v-1.4C581.8,217,577.9,208.5,570,201 M568.3,231.4
			c-0.3,4.8-1.6,9-3.9,12.6c-2.3,3.7-5.1,6.5-8.5,8.4c-3.4,2-6.8,3.4-10.3,4.4c-3.5,1-6.9,1.5-10.3,1.5c-3.1,0-5.7-0.5-8-1.4v-56.3
			c0.5,0,2-0.1,4.5-0.3c2.5-0.2,4.5-0.2,6.1-0.2c2.9,0,5.6,0.2,8.1,0.6c2.6,0.4,5.2,1.2,8.1,2.4c2.8,1.2,5.3,2.9,7.3,4.9
			c2,2,3.7,4.8,5,8.4c1.3,3.6,2,7.7,2,12.4V231.4z"/>
		<path class="st2" d="M506.4,253.6c0-0.5-0.4-1-1-1c-0.2,0-0.4,0.1-0.5,0.2v0c-5.3,3.5-11.4,5.2-18.3,5.2c-2.3,0-7.7-0.6-16.2-1.9
			v-27.2h8.3c4.2,0,7.3,0.7,9.2,2.1c0.2,0.1,0.4,0.2,0.6,0.2c0.5,0,0.9-0.4,1-0.9h0v-9h0v0c0-0.5-0.4-1-1-1c-0.1,0-0.2,0-0.3,0.1
			c-1.5,0.3-3.7,0.5-6.8,0.5h-11v-20.9c2.2-0.2,5.4-0.3,9.7-0.3c7,0,12,1.1,15,3.2c0.2,0.2,0.4,0.3,0.7,0.3c0.5,0,1-0.4,1-1h0v-10.7
			h0c0,0,0,0,0-0.1c0-0.5-0.4-1-1-1c0,0-0.1,0-0.1,0v0c-1.1,0.3-2.6,0.5-4.4,0.5h-34.8v0c-0.5,0-0.9,0.5-0.9,1
			c0,0.2,0.1,0.5,0.2,0.6h0c0.6,0.7,1.1,1.5,1.5,2.4c0.7,1.6,1.1,2.9,1.2,4c0.1,1.1,0.1,2.6,0.1,4.6V256c0,3-1.1,5.8-3.2,8.4h0
			c-0.1,0.2-0.2,0.4-0.2,0.6c0,0.5,0.4,1,1,1c0,0,0,0,0.1,0v0h44.8l5.1-11.9C506.4,253.9,506.4,253.8,506.4,253.6"/>
		<path class="st3" d="M494,179.7L494,179.7L494,179.7C494,179.7,493.9,179.6,494,179.7l-3.5-7.6h0c-0.1-0.5-0.5-0.9-1-0.9
			c-0.1,0-0.2,0-0.3,0.1v0l-23.6,7.7v0c-0.5,0-0.9,0.5-0.9,1c0,0.5,0.4,0.9,0.9,1v0h27.4v0c0,0,0.1,0,0.1,0c0.5,0,1-0.4,1-1
			C494,179.9,494,179.8,494,179.7"/>
		<path class="st0" d="M153.6,192.5c-7.3-1.6-15-2.8-22.9-2.8c-26.4,0-48.2,15.2-52.8,38.2c-4.8,23.7,11,38.4,41.4,38.4
			c6.7,0,13.6-0.9,20.1-3.3l7.2-10.1c0.2-0.2,0.3-0.4,0.3-0.7c0-0.5-0.4-1-1-1c-0.2,0-0.3,0-0.4,0.1v0c-8.2,3.4-17.4,5.8-26.1,5.8
			c-19.8,0-29.7-14.5-26.4-30.8c3.2-16.1,17.9-27.3,35.6-27.3c7.9,0,15.2,2.1,21.3,5.6v0c0.1,0.1,0.3,0.2,0.5,0.2
			c0.5,0,0.9-0.4,1-0.9h0L153.6,192.5z"/>
		<path class="st4" d="M2.8,189.7c-1.6,7.3-2.8,15-2.8,22.9c0,26.4,15.2,48.2,38.2,52.8c23.7,4.8,38.4-11,38.4-41.4
			c0-6.7-0.9-13.6-3.3-20.1l-10.1-7.2c-0.2-0.2-0.4-0.3-0.7-0.3c-0.5,0-1,0.4-1,1c0,0.2,0,0.3,0.1,0.4h0c3.4,8.2,5.8,17.4,5.8,26.1
			c0,19.8-14.5,29.7-30.8,26.4c-16.1-3.2-27.3-17.9-27.3-35.6c0-7.9,2.1-15.2,5.6-21.3h0c0.1-0.1,0.2-0.3,0.2-0.5
			c0-0.5-0.4-0.9-0.9-1v0L2.8,189.7z"/>
		<path class="st4" d="M835.7,304.2c1.6-7.3,2.8-15,2.8-22.9c0-26.4-15.2-48.2-38.2-52.8c-23.7-4.8-38.4,11-38.4,41.4
			c0,6.7,0.9,13.6,3.3,20.1l10.1,7.2c0.2,0.2,0.4,0.3,0.7,0.3c0.5,0,1-0.4,1-1c0-0.2,0-0.3-0.1-0.4h0c-3.4-8.2-5.8-17.4-5.8-26.1
			c0-19.8,14.5-29.7,30.8-26.4c16.1,3.2,27.3,17.9,27.3,35.6c0,7.9-2.1,15.2-5.6,21.3h0c-0.1,0.1-0.2,0.3-0.2,0.5
			c0,0.5,0.4,0.9,0.9,1v0L835.7,304.2z"/>
		<path class="st4" d="M384.6,2.5c-7.3-1.6-15-2.8-22.9-2.8c-26.4,0-48.2,15.2-52.8,38.2c-4.8,23.7,11,38.4,41.4,38.4
			c6.7,0,13.6-0.9,20.1-3.3l7.2-10.1c0.2-0.2,0.3-0.4,0.3-0.7c0-0.5-0.4-1-1-1c-0.2,0-0.3,0-0.4,0.1v0c-8.2,3.4-17.4,5.8-26.1,5.8
			c-19.8,0-29.7-14.5-26.4-30.8c3.2-16.1,17.9-27.3,35.6-27.3c7.9,0,15.2,2.1,21.3,5.6v0c0.1,0.1,0.3,0.2,0.5,0.2
			c0.5,0,0.9-0.4,1-0.9h0L384.6,2.5z"/>
		<path class="st4" d="M442.6,269.5c-7.3-1.6-15-2.8-22.9-2.8c-26.4,0-48.2,15.2-52.8,38.2c-4.8,23.7,11,38.4,41.4,38.4
			c6.7,0,13.6-0.9,20.1-3.3l7.2-10.1c0.2-0.2,0.3-0.4,0.3-0.7c0-0.5-0.4-1-1-1c-0.2,0-0.3,0-0.4,0.1v0c-8.2,3.4-17.4,5.8-26.1,5.8
			c-19.8,0-29.7-14.5-26.4-30.8c3.2-16.1,17.9-27.3,35.6-27.3c7.9,0,15.2,2.1,21.3,5.6v0c0.1,0.1,0.3,0.2,0.5,0.2
			c0.5,0,0.9-0.4,1-0.9h0L442.6,269.5z"/>
		<path class="st2" d="M677.6,252.6c0-0.5-0.4-1-1-1c-0.1,0-0.2,0-0.4,0.1v0c-2,1-3.6,1.7-4.9,2.2h0c0,0-0.3,0.1-0.8,0.3l0,0
			c-0.2,0.1-0.4,0.2-0.7,0.2l0,0c-1.1,0.4-2.9,0.9-5,1.4l-0.1,0c0,0-0.1,0-0.1,0c-0.5,0.1-1.1,0.2-1.7,0.4c-0.1,0-0.2,0-0.3,0
			c-3,0.6-6.5,0.9-10.2,0.7c-0.2,0-0.4,0-0.6,0c-0.4,0-0.8-0.1-1.2-0.1c-3.3-0.4-6.4-1.2-9.2-2.7c-3.8-1.9-6.9-4.4-9.3-7.5
			c-2.4-3.1-4.2-6.5-5.5-10.3c-1.3-3.8-2-7.6-2-11.5c0-7.4,2.2-13.7,6.7-19c4.5-5.3,10.7-8,18.8-8c7.4,0,14.6,1.8,21.3,5.4v0
			c0.1,0.1,0.3,0.2,0.5,0.2c0.5,0,1-0.4,1-1c0,0,0-0.1,0-0.1v-11.7c-7.4-1.8-14.7-2.7-21.9-2.7c-7.6,0-14.1,1.3-19.5,3.8
			c-5.4,2.5-9.6,5.9-12.4,10.2c-2.8,4.3-4.9,8.8-6.1,13.5c-1.2,4.7-1.8,9.7-1.8,15.1c0.7,11.8,5.3,20.9,13.7,27.3
			c8.5,6.4,18.5,9.5,29.9,9.5c6.5,0,12.9-1.1,19-3.2l3.8-11.2C677.5,252.9,677.6,252.8,677.6,252.6"/>
		<path class="st2" d="M760.7,264.3L760.7,264.3c-0.2-0.2-0.5-0.4-0.7-0.7c-1.1-1.1-2-1.9-2.5-2.4c-0.5-0.6-1.2-1.4-2-2.5
			c-0.8-1.1-1.5-2.3-2.1-3.6l-26.9-64.5h0c-0.1-0.4-0.5-0.8-0.9-0.8v0h-14.7v0c-0.5,0-1,0.4-1,1c0,0.3,0.1,0.5,0.3,0.7h0
			c0.9,1,1.4,2.1,1.4,3.3c0,0.9-0.2,1.9-0.6,3.2L689,253.3c-0.9,3.9-3.5,7.6-7.7,11h0c-0.2,0.2-0.3,0.4-0.3,0.7c0,0.5,0.4,0.9,0.9,1
			v0h17.2v0c0.5,0,0.9-0.5,0.9-1c0-0.3-0.1-0.5-0.3-0.7v0c-1-0.9-1.7-1.6-2-2.1c-0.3-0.5-0.4-1.2-0.4-2c0-0.2,0-0.4,0.1-0.8
			c0.1-0.3,0.2-0.8,0.3-1.3c0.1-0.5,0.2-0.9,0.3-1.1l7.1-20h28.3l7.4,18.2c0.1,0.3,0.3,0.7,0.6,1.5c0.3,0.7,0.5,1.4,0.7,2.1
			c0.2,0.7,0.3,1.3,0.3,1.9c0,1.4-0.5,2.6-1.5,3.6c-0.2,0.2-0.4,0.5-0.4,0.8c0,0.5,0.4,0.9,0.9,1v0h0.2h3.6h11.2h3.5h0.3
			c0.5,0,1-0.4,1-1C761,264.7,760.9,264.4,760.7,264.3 M708.1,228.8l10.8-28.1l10.8,28.1H708.1z"/>
		<path class="st2" d="M605.8,264.2c-0.7-0.6-1.3-1.3-1.9-2.1c-1.5-2.2-2.3-4.2-2.3-6v-54.5c0-3.1,0.4-5.4,1.3-7.1
			c0.5-1,1.3-2,2.2-2.9c0,0,0.1-0.1,0.1-0.1c0,0,0,0,0,0h0c0.1-0.2,0.2-0.4,0.2-0.6c0-0.5-0.4-1-1-1c0,0-0.1,0-0.1,0v0h-17v0
			c-0.5,0-0.9,0.5-0.9,1c0,0.2,0.1,0.4,0.2,0.6h0c2.2,2.2,3.4,5.2,3.4,9.2V256c0,2.5-0.7,4.7-2,6.5c-0.5,0.7-1,1.3-1.6,1.7
			c0,0,0,0-0.1,0v0v0c-0.2,0.2-0.3,0.4-0.3,0.7c0,0.5,0.4,1,1,1c0,0,0.1,0,0.1,0v0h16.2h2c0.5,0,1-0.4,1-1
			C606.2,264.7,606.1,264.4,605.8,264.2"/>
		<path class="st2" d="M446.6,264.4L446.6,264.4c-2.2-2-3.7-5.3-4.7-10.1l-7.3-55.4c0-0.2,0-0.5-0.2-0.9c-0.1-0.5-0.2-0.8-0.2-1.1
			c0-2.2,0.8-4,2.2-5.3c0.2-0.2,0.3-0.4,0.3-0.7c0-0.5-0.4-1-1-1h-0.1h-2.1h-14.8v0c-0.2,0.1-0.5,0.2-0.7,0.4
			c-0.2,0.2-0.3,0.5-0.4,0.7l-20.5,55.2l-24.1-55.5h0c-0.1-0.4-0.5-0.8-0.9-0.8h0h-17v0c-0.5,0-0.9,0.4-0.9,1c0,0.3,0.1,0.5,0.3,0.7
			c0,0,0,0,0.1,0.1c0.1,0.1,0.2,0.1,0.2,0.2c0.2,0.2,0.4,0.4,0.7,0.8c0.3,0.3,0.5,0.6,0.6,0.8c0.1,0.2,0.2,0.5,0.3,0.9
			c0.1,0.4,0.2,0.8,0.3,1.2c0,0.4,0.1,0.9,0.1,1.4c0,0.3,0,1-0.1,2c-0.1,1-0.1,1.9-0.1,2.7l-7.1,52.7c0,1.7-0.5,3.8-1.7,6.2
			c-0.7,1.5-1.5,2.8-2.6,3.8h0c-0.2,0.2-0.3,0.4-0.3,0.7c0,0.5,0.4,1,1,1l0.1,0v0h14.9v0h0.2c0.5,0,1-0.4,1-1c0-0.2-0.1-0.5-0.2-0.6
			h0c0,0,0,0,0,0c0,0,0,0-0.1-0.1c-1.1-1.1-1.9-2.2-2.4-3.3c-0.7-1.6-1.1-3.9-1.1-6.7l7.3-51.8l22.8,52c3.1,6.3,6.7,10.1,9.7,11.4
			c0,0,0,0,0,0c0.1,0,0.2,0.1,0.4,0.1c0.4,0,0.8-0.3,0.9-0.7h0l24.4-62.8l6.5,51.8v2c0,3.7-0.8,6.3-2.5,8h0
			c-0.2,0.2-0.3,0.4-0.3,0.7c0,0.5,0.4,1,1,1c0.1,0,0.1,0,0.2,0v0h16.9v-0.1c0.1,0,0.2,0.1,0.3,0.1c0.5,0,1-0.4,1-1
			C446.8,264.7,446.7,264.5,446.6,264.4"/>
		<path class="st0" d="M297.2,253.2c0-0.5-0.4-1-1-1c-0.2,0-0.4,0.1-0.5,0.1v0c-6.3,3.7-13.2,5.6-20.4,5.2l-16.7-1l9.4-50.4
			c0.8-4.4,1.5-11.2,5.8-14.5c0.3-0.2,0.4-0.5,0.4-0.8c0-0.5-0.4-1-1-1h-0.1h-3.2h-14.4c-0.5,0-1,0.4-1,1c0,0.3,0.1,0.5,0.3,0.7
			c3.2,3.3,1.4,10.1,0.5,14.6l-8.2,43.6c-0.8,4.4-1.6,11.3-5.9,14.5h0c-0.2,0.2-0.3,0.4-0.3,0.7c0,0.5,0.4,1,1,1h0h0h47.7l7.5-12.2
			h0C297.2,253.5,297.2,253.4,297.2,253.2"/>
	</g>
</g>
</svg>
